<?xml version="1.0" encoding="UTF-8" standalone="no"?>
<svg
   viewBox="-80 -80 320 260"
   version="1.1"
   id="svg9"
   sodipodi:docname="tapechunk10.svg"
   inkscape:version="1.4 (e7c3feb100, 2024-10-09)"
   xmlns:inkscape="http://www.inkscape.org/namespaces/inkscape"
   xmlns:sodipodi="http://sodipodi.sourceforge.net/DTD/sodipodi-0.dtd"
   xmlns="http://www.w3.org/2000/svg"
   xmlns:svg="http://www.w3.org/2000/svg">
  <defs
     id="defs9">
    <rect
       x="80"
       y="110"
       width="160"
       height="62.968"
       id="rect11" />
    <rect
       x="80"
       y="60"
       width="160"
       height="140"
       id="rect10" />
  </defs>
  <sodipodi:namedview
     showgrid="true"
     id="namedview1"
     pagecolor="#ffffff"
     bordercolor="#000000"
     borderopacity="0.25"
     inkscape:showpageshadow="2"
     inkscape:pageopacity="0.0"
     inkscape:pagecheckerboard="0"
     inkscape:deskcolor="#d1d1d1"
     inkscape:zoom="4.5581191"
     inkscape:cx="173.75588"
     inkscape:cy="116.05664"
     inkscape:window-width="1151"
     inkscape:window-height="1177"
     inkscape:window-x="0"
     inkscape:window-y="21"
     inkscape:window-maximized="1"
     inkscape:current-layer="svg9">
    <inkscape:grid
       type="xygrid"
       empspacing="4"
       spacingx="5"
       spacingy="5"
       id="grid1"
       visible="true"
       originx="0"
       originy="0"
       units="px" />
  </sodipodi:namedview>
  <rect
     stroke="#000000"
     stroke-width="4"
     fill="#ffffb4"
     fill-opacity="0.784314"
     x="0"
     y="-20"
     width="160"
     height="140"
     id="rect1" />
  <text
     id="label"
     fill="#000000"
     font-size="24px"
     text-anchor="middle"
     x="80"
     y="-30">Label</text>
  <g
     id="g1">
    <circle
       fill="#0000b2"
       id="pin:Write"
       cx="0"
       cy="20"
       r="3" />
    <text
       fill="#808080"
       font-size="18px"
       x="4"
       y="26"
       id="text1">Write</text>
  </g>
  <g
     id="g2">
    <circle
       fill="#0000b2"
       id="pin:SHR"
       cx="0"
       cy="100"
       r="3" />
    <text
       fill="#808080"
       font-size="18px"
       x="4"
       y="106"
       id="text2">SHR</text>
  </g>
  <g
     id="g3">
    <circle
       fill="#0000b2"
       id="pin:SHL"
       cx="0"
       cy="80"
       r="3" />
    <text
       fill="#808080"
       font-size="18px"
       x="4"
       y="86"
       id="text3">SHL</text>
  </g>
  <g
     id="g4">
    <circle
       fill="#0000b2"
       id="pin:Data"
       cx="0"
       cy="40"
       r="3" />
    <text
       fill="#808080"
       font-size="18px"
       x="4"
       y="46"
       id="text4">Data</text>
  </g>
  <g
     id="g5">
    <circle
       fill="#0000b2"
       id="pin:Lin"
       cx="60"
       cy="-20"
       r="3" />
    <text
       fill="#808080"
       font-size="18px"
       x="-10.349609"
       y="66"
       id="text5"
       transform="rotate(-90)">Lin</text>
  </g>
  <g
     id="g6">
    <circle
       fill="#0000b2"
       id="pin:Rin"
       cx="100"
       cy="120"
       r="3" />
    <text
       fill="#808080"
       font-size="18px"
       x="-116"
       y="106"
       id="text6"
       transform="rotate(-90)">Rin</text>
    <text
       xml:space="preserve"
       transform="translate(-80,-80)"
       id="text10"
       style="fill:#000000;text-orientation:auto;-inkscape-font-specification:'Serif Italic';font-family:Serif;font-size:53.33333333px;font-style:italic;text-align:center;writing-mode:lr-tb;direction:ltr;white-space:pre;shape-inside:url(#rect10)" />
  </g>
  <g
     id="g7">
    <circle
       fill="#b20000"
       id="pin:Value"
       cx="160"
       cy="40"
       r="3" />
    <text
       fill="#808080"
       font-size="18px"
       text-anchor="end"
       x="156"
       y="46"
       id="text7">Value</text>
  </g>
  <g
     id="g8">
    <circle
       fill="#b20000"
       id="pin:Rout"
       cx="100"
       cy="-20"
       r="3" />
    <text
       fill="#808080"
       font-size="18px"
       text-anchor="end"
       x="15.369141"
       y="106.40723"
       id="text8"
       transform="rotate(-90)">Rout</text>
  </g>
  <g
     id="g9">
    <circle
       fill="#b20000"
       id="pin:Lout"
       cx="60"
       cy="120"
       r="3" />
    <text
       fill="#808080"
       font-size="18px"
       text-anchor="end"
       x="-76.572266"
       y="65.727539"
       id="text9"
       transform="rotate(-90)">Lout</text>
  </g>
  <path
     id="text11"
     style="font-style:italic;font-size:53.3333px;font-family:Serif;-inkscape-font-specification:'Serif Italic';text-align:center;white-space:pre"
     transform="translate(-80,-92)"
     d="m 132.21335,158.52665 0.42667,-2.24 h 2.82666 q 1.81333,0 3.25333,-0.64 1.44,-0.69333 1.97333,-3.2 l 4.16,-19.62665 q 0.42667,-2.08 0.90667,-4.16 0.53333,-2.13333 1.06666,-4.21333 h -0.21333 q -2.66666,2.61333 -4.53333,4.10666 -1.81333,1.44 -3.52,1.44 -1.12,0 -1.65333,-0.8 -0.48,-0.85333 -0.48,-2.08 1.86667,-0.48 3.78666,-1.28 1.92,-0.85333 4.96,-2.82666 l 4.32,-2.77333 h 3.41333 l -6.88,32.42664 q -0.21333,0.85334 -0.21333,1.49334 0,1.33333 1.06667,1.76 1.12,0.37333 2.77333,0.37333 h 2.88 l -0.48,2.24 z m 40.21331,0.58666 q -4.58666,0 -7.46666,-3.30666 -2.82667,-3.30667 -2.82667,-9.6 0,-3.30666 0.58667,-6.93332 0.64,-3.68 1.86666,-7.09333 1.28,-3.46667 3.14667,-6.24 1.92,-2.77333 4.48,-4.42666 2.61333,-1.65334 5.91999,-1.65334 2.82667,0 5.12,1.28 2.29333,1.28 3.62666,4 1.38667,2.66667 1.38667,6.93333 0,3.25333 -0.58667,6.93333 -0.58666,3.68 -1.81333,7.25333 -1.22666,3.52 -3.09333,6.45333 -1.86667,2.93333 -4.48,4.69333 -2.56,1.70666 -5.86666,1.70666 z m 0.42667,-2.93333 q 2.23999,0 3.94666,-1.65333 1.70667,-1.70667 2.88,-4.48 1.22666,-2.77333 1.97333,-6.07999 0.74667,-3.36 1.06667,-6.72 0.37333,-3.36 0.37333,-6.18666 0,-4.37333 -1.44,-6.34667 -1.38667,-1.97333 -4.05333,-1.97333 -2.24,0 -3.94666,1.70667 -1.65334,1.65333 -2.88,4.42666 -1.22667,2.72 -1.97334,6.08 -0.74666,3.30666 -1.11999,6.66666 -0.37334,3.30667 -0.37334,6.13333 0,4.42666 1.49333,6.45333 1.49334,1.97333 4.05334,1.97333 z" />
</svg>
