<?xml version="1.0" encoding="UTF-8" standalone="no"?>
<svg
   viewBox="-80 -80 320 260"
   version="1.1"
   id="svg9"
   sodipodi:docname="tapechunk10000.svg"
   inkscape:version="1.4 (e7c3feb100, 2024-10-09)"
   xmlns:inkscape="http://www.inkscape.org/namespaces/inkscape"
   xmlns:sodipodi="http://sodipodi.sourceforge.net/DTD/sodipodi-0.dtd"
   xmlns="http://www.w3.org/2000/svg"
   xmlns:svg="http://www.w3.org/2000/svg">
  <defs
     id="defs9">
    <rect
       x="80"
       y="110"
       width="160"
       height="62.968"
       id="rect11" />
    <rect
       x="80"
       y="60"
       width="160"
       height="140"
       id="rect10" />
  </defs>
  <sodipodi:namedview
     showgrid="true"
     id="namedview1"
     pagecolor="#ffffff"
     bordercolor="#000000"
     borderopacity="0.25"
     inkscape:showpageshadow="2"
     inkscape:pageopacity="0.0"
     inkscape:pagecheckerboard="0"
     inkscape:deskcolor="#d1d1d1"
     inkscape:zoom="2.3313977"
     inkscape:cx="150.55346"
     inkscape:cy="124.3889"
     inkscape:window-width="1151"
     inkscape:window-height="1177"
     inkscape:window-x="0"
     inkscape:window-y="21"
     inkscape:window-maximized="1"
     inkscape:current-layer="svg9">
    <inkscape:grid
       type="xygrid"
       empspacing="4"
       spacingx="5"
       spacingy="5"
       id="grid1"
       visible="true"
       originx="0"
       originy="0"
       units="px" />
  </sodipodi:namedview>
  <rect
     stroke="#000000"
     stroke-width="4"
     fill="#ffffb4"
     fill-opacity="0.784314"
     x="0"
     y="-20"
     width="160"
     height="140"
     id="rect1" />
  <text
     id="label"
     fill="#000000"
     font-size="24px"
     text-anchor="middle"
     x="80"
     y="-30">Label</text>
  <g
     id="g1">
    <circle
       fill="#0000b2"
       id="pin:Write"
       cx="0"
       cy="20"
       r="3" />
    <text
       fill="#808080"
       font-size="18px"
       x="4"
       y="26"
       id="text1">Write</text>
  </g>
  <g
     id="g2">
    <circle
       fill="#0000b2"
       id="pin:SHR"
       cx="0"
       cy="100"
       r="3" />
    <text
       fill="#808080"
       font-size="18px"
       x="4"
       y="106"
       id="text2">SHR</text>
  </g>
  <g
     id="g3">
    <circle
       fill="#0000b2"
       id="pin:SHL"
       cx="0"
       cy="80"
       r="3" />
    <text
       fill="#808080"
       font-size="18px"
       x="4"
       y="86"
       id="text3">SHL</text>
  </g>
  <g
     id="g4">
    <circle
       fill="#0000b2"
       id="pin:Data"
       cx="0"
       cy="40"
       r="3" />
    <text
       fill="#808080"
       font-size="18px"
       x="4"
       y="46"
       id="text4">Data</text>
  </g>
  <g
     id="g5">
    <circle
       fill="#0000b2"
       id="pin:Lin"
       cx="60"
       cy="-20"
       r="3" />
    <text
       fill="#808080"
       font-size="18px"
       x="-10.349609"
       y="66"
       id="text5"
       transform="rotate(-90)">Lin</text>
  </g>
  <g
     id="g6">
    <circle
       fill="#0000b2"
       id="pin:Rin"
       cx="100"
       cy="120"
       r="3" />
    <text
       fill="#808080"
       font-size="18px"
       x="-116"
       y="106"
       id="text6"
       transform="rotate(-90)">Rin</text>
    <text
       xml:space="preserve"
       transform="translate(-80,-80)"
       id="text10"
       style="font-style:italic;font-size:53.3333px;font-family:Serif;-inkscape-font-specification:'Serif Italic';text-align:center;writing-mode:lr-tb;direction:ltr;white-space:pre;shape-inside:url(#rect10);display:inline;fill:#000000" />
  </g>
  <g
     id="g7">
    <circle
       fill="#b20000"
       id="pin:Value"
       cx="160"
       cy="40"
       r="3" />
    <text
       fill="#808080"
       font-size="18px"
       text-anchor="end"
       x="156"
       y="46"
       id="text7">Value</text>
  </g>
  <g
     id="g8">
    <circle
       fill="#b20000"
       id="pin:Rout"
       cx="100"
       cy="-20"
       r="3" />
    <text
       fill="#808080"
       font-size="18px"
       text-anchor="end"
       x="15.369141"
       y="106.40723"
       id="text8"
       transform="rotate(-90)">Rout</text>
  </g>
  <g
     id="g9">
    <circle
       fill="#b20000"
       id="pin:Lout"
       cx="60"
       cy="120"
       r="3" />
    <text
       fill="#808080"
       font-size="18px"
       text-anchor="end"
       x="-76.572266"
       y="65.727539"
       id="text9"
       transform="rotate(-90)">Lout</text>
  </g>
  <path
     id="text11"
     style="font-style:italic;font-size:42.6667px;font-family:Serif;-inkscape-font-specification:'Serif Italic';text-align:center;white-space:pre"
     transform="translate(-80,-92)"
     d="m 96.661285,158.52665 0.341333,-1.792 h 2.261335 q 1.450667,0 2.602667,-0.512 1.152,-0.55467 1.57867,-2.56001 l 3.328,-15.70134 q 0.34134,-1.664 0.72534,-3.328 0.42666,-1.70667 0.85333,-3.37067 h -0.17067 q -2.13333,2.09067 -3.62667,3.28533 -1.45066,1.152 -2.816,1.152 -0.896,0 -1.32267,-0.64 -0.384,-0.68266 -0.384,-1.664 1.49334,-0.384 3.02934,-1.024 1.536,-0.68267 3.968,-2.26133 l 3.456,-2.21867 h 2.73067 l -5.504,25.94135 q -0.17067,0.68267 -0.17067,1.19467 0,1.06667 0.85334,1.408 0.896,0.29867 2.21866,0.29867 h 2.30401 l -0.384,1.792 z m 32.170695,0.46933 q -3.66934,0 -5.97334,-2.64533 -2.26134,-2.64534 -2.26134,-7.68001 0,-2.64534 0.46934,-5.54667 0.512,-2.944 1.49333,-5.67467 1.024,-2.77334 2.51734,-4.99201 1.536,-2.21866 3.584,-3.54133 2.09067,-1.32267 4.736,-1.32267 2.26134,0 4.09601,1.024 1.83466,1.024 2.90133,3.2 1.10934,2.13334 1.10934,5.54668 0,2.60266 -0.46934,5.54667 -0.46933,2.944 -1.45067,5.80267 -0.98133,2.816 -2.47466,5.16267 -1.49334,2.34667 -3.58401,3.75467 -2.048,1.36533 -4.69333,1.36533 z m 0.34133,-2.34667 q 1.792,0 3.15734,-1.32266 1.36533,-1.36534 2.304,-3.58401 0.98133,-2.21867 1.57866,-4.864 0.59734,-2.688 0.85334,-5.37601 0.29867,-2.688 0.29867,-4.94933 0,-3.49867 -1.15201,-5.07734 -1.10933,-1.57867 -3.24266,-1.57867 -1.79201,0 -3.15734,1.36534 -1.32267,1.32266 -2.304,3.54133 -0.98134,2.176 -1.57867,4.86401 -0.59733,2.64533 -0.896,5.33333 -0.29867,2.64534 -0.29867,4.90667 0,3.54134 1.19467,5.16267 1.19467,1.57867 3.24267,1.57867 z m 12.54401,6.31467 q 4.352,-0.98133 4.352,-3.584 0,-0.59733 -0.42666,-0.93867 -0.42667,-0.34133 -0.98134,-0.68266 -0.512,-0.34134 -0.93867,-0.81067 -0.42666,-0.512 -0.42666,-1.36533 0,-1.23734 0.768,-1.87734 0.81067,-0.64 1.87733,-0.64 1.36534,0 2.34667,0.93867 0.98134,0.896 0.98134,2.56 0,2.90133 -1.87734,5.12 -1.87733,2.26134 -5.84534,3.07201 z m 21.63202,-3.968 q -3.66934,0 -5.97334,-2.64533 -2.26134,-2.64534 -2.26134,-7.68001 0,-2.64534 0.46934,-5.54667 0.512,-2.944 1.49333,-5.67467 1.024,-2.77334 2.51734,-4.99201 1.536,-2.21866 3.584,-3.54133 2.09067,-1.32267 4.736,-1.32267 2.26134,0 4.09601,1.024 1.83466,1.024 2.90133,3.2 1.10934,2.13334 1.10934,5.54668 0,2.60266 -0.46934,5.54667 -0.46933,2.944 -1.45067,5.80267 -0.98133,2.816 -2.47466,5.16267 -1.49334,2.34667 -3.58401,3.75467 -2.048,1.36533 -4.69333,1.36533 z m 0.34133,-2.34667 q 1.792,0 3.15734,-1.32266 1.36533,-1.36534 2.304,-3.58401 0.98133,-2.21867 1.57867,-4.864 0.59733,-2.688 0.85333,-5.37601 0.29867,-2.688 0.29867,-4.94933 0,-3.49867 -1.152,-5.07734 -1.10934,-1.57867 -3.24267,-1.57867 -1.79201,0 -3.15734,1.36534 -1.32267,1.32266 -2.304,3.54133 -0.98134,2.176 -1.57867,4.86401 -0.59733,2.64533 -0.896,5.33333 -0.29867,2.64534 -0.29867,4.90667 0,3.54134 1.19467,5.16267 1.19467,1.57867 3.24267,1.57867 z m 23.50935,2.34667 q -3.66934,0 -5.97334,-2.64533 -2.26133,-2.64534 -2.26133,-7.68001 0,-2.64534 0.46933,-5.54667 0.512,-2.944 1.49333,-5.67467 1.024,-2.77334 2.51734,-4.99201 1.536,-2.21866 3.584,-3.54133 2.09067,-1.32267 4.736,-1.32267 2.26134,0 4.09601,1.024 1.83467,1.024 2.90133,3.2 1.10934,2.13334 1.10934,5.54668 0,2.60266 -0.46934,5.54667 -0.46933,2.944 -1.45066,5.80267 -0.98134,2.816 -2.47467,5.16267 -1.49334,2.34667 -3.58401,3.75467 -2.048,1.36533 -4.69333,1.36533 z m 0.34133,-2.34667 q 1.792,0 3.15734,-1.32266 1.36533,-1.36534 2.304,-3.58401 0.98133,-2.21867 1.57867,-4.864 0.59733,-2.688 0.85333,-5.37601 0.29867,-2.688 0.29867,-4.94933 0,-3.49867 -1.152,-5.07734 -1.10934,-1.57867 -3.24267,-1.57867 -1.792,0 -3.15734,1.36534 -1.32267,1.32266 -2.304,3.54133 -0.98133,2.176 -1.57867,4.86401 -0.59733,2.64533 -0.896,5.33333 -0.29867,2.64534 -0.29867,4.90667 0,3.54134 1.19467,5.16267 1.19467,1.57867 3.24267,1.57867 z m 23.50935,2.34667 q -3.66933,0 -5.97333,-2.64533 -2.26134,-2.64534 -2.26134,-7.68001 0,-2.64534 0.46933,-5.54667 0.512,-2.944 1.49334,-5.67467 1.024,-2.77334 2.51733,-4.99201 1.536,-2.21866 3.58401,-3.54133 2.09066,-1.32267 4.736,-1.32267 2.26133,0 4.096,1.024 1.83467,1.024 2.90134,3.2 1.10933,2.13334 1.10933,5.54668 0,2.60266 -0.46933,5.54667 -0.46933,2.944 -1.45067,5.80267 -0.98133,2.816 -2.47467,5.16267 -1.49333,2.34667 -3.584,3.75467 -2.048,1.36533 -4.69334,1.36533 z m 0.34134,-2.34667 q 1.792,0 3.15733,-1.32266 1.36534,-1.36534 2.304,-3.58401 0.98134,-2.21867 1.57867,-4.864 0.59734,-2.688 0.85334,-5.37601 0.29866,-2.688 0.29866,-4.94933 0,-3.49867 -1.152,-5.07734 -1.10933,-1.57867 -3.24267,-1.57867 -1.792,0 -3.15733,1.36534 -1.32267,1.32266 -2.304,3.54133 -0.98134,2.176 -1.57867,4.86401 -0.59734,2.64533 -0.896,5.33333 -0.29867,2.64534 -0.29867,4.90667 0,3.54134 1.19467,5.16267 1.19467,1.57867 3.24267,1.57867 z" />
</svg>
